<svg xmlns="http://www.w3.org/2000/svg" width="32" height="32" viewBox="0 0 32 32"><title>free-shipping</title><path d="M32 19.8c0-1.37-0.8-2.56-2-3.23v-3.87l-3.13-4.7h-4.87v-3h-19v2h17v11h7.81c1.21 0 2.19 0.81 2.19 1.8v3.2h-3.15c-0.44-1.57-1.87-2.72-3.57-2.72s-3.12 1.15-3.57 2.71h-10.42c-0.44-1.56-1.87-2.71-3.57-2.71-2.050 0-3.72 1.67-3.72 3.72s1.67 3.72 3.72 3.72c1.71 0 3.14-1.16 3.57-2.73h10.41c0.44 1.57 1.87 2.73 3.57 2.73s3.13-1.16 3.57-2.72h5.16v-5.2zM5.72 25.72c-0.95 0-1.72-0.77-1.72-1.72s0.77-1.72 1.72-1.72 1.73 0.77 1.73 1.72-0.78 1.72-1.73 1.72zM23.28 25.72c-0.95 0-1.72-0.77-1.72-1.72s0.77-1.72 1.72-1.72 1.72 0.77 1.72 1.72-0.77 1.72-1.72 1.72zM25.42 16h-3.42v-6h3.8l2.2 3.3v2.7h-2.58z"></path><path d="M0 11h9.53v2h-9.53v-2z"></path><path d="M6 16h10.89v2h-10.89v-2z"></path></svg>